<svg width="26" height="30" viewBox="0 0 26 30" fill="none" xmlns="http://www.w3.org/2000/svg">
<path d="M8.85447 29.9995C4.38957 29.9738 0.696289 20.8594 0.696289 16.2177C0.696289 8.63543 6.38428 6.97547 8.57639 6.97547C9.56428 6.97547 10.6191 7.36342 11.5496 7.70672C12.2002 7.94619 12.8731 8.1934 13.2473 8.1934C13.4713 8.1934 13.9992 7.98311 14.4652 7.79859C15.4592 7.40291 16.696 6.91113 18.1362 6.91113C18.1388 6.91113 18.1422 6.91113 18.1447 6.91113C19.2202 6.91113 22.4809 7.14715 24.4413 10.0911L24.9005 10.7812L24.2396 11.2799C23.2955 11.9923 21.5728 13.2918 21.5728 15.8658C21.5728 18.9145 23.5238 20.087 24.461 20.6509C24.8748 20.8998 25.303 21.1564 25.303 21.7178C25.303 22.0843 22.3779 29.9541 18.1302 29.9541C17.0908 29.9541 16.3561 29.6416 15.708 29.3661C15.0523 29.0872 14.4866 28.8469 13.5519 28.8469C13.0781 28.8469 12.479 29.0709 11.8447 29.3087C10.978 29.6321 9.99688 29.9995 8.88365 29.9995H8.85447Z" fill="white"/>
<path d="M18.5863 0C18.6969 3.98883 15.8442 6.75609 12.9949 6.58254C12.5254 3.39932 15.8439 0 18.5863 0Z" fill="white"/>
</svg>
