<svg width="28" height="30" viewBox="0 0 28 30" fill="none" xmlns="http://www.w3.org/2000/svg">
<path d="M4.74809 0.382326C3.97523 -0.0829128 3.05412 -0.124515 2.2508 0.262794L15.7199 13.7606L20.1238 9.33612L4.74809 0.382326ZM1.01328 1.51202C0.84336 1.87179 0.751953 2.27199 0.751953 2.68391V27.3744C0.751953 27.7881 0.843946 28.1824 1.01563 28.5346L14.4794 15.0069L1.01328 1.51202ZM15.7217 16.2514L2.27429 29.7627C2.63113 29.9279 3.01082 30 3.38993 30C3.8581 30 4.32509 29.8881 4.74814 29.6338L20.1268 20.6665L15.7217 16.2514ZM25.9798 12.7463C25.9745 12.7428 25.9687 12.7393 25.9634 12.7364L21.6942 10.2502L16.9615 15.0051L21.6971 19.7507C21.6971 19.7507 25.9745 17.2569 25.9798 17.254C26.7737 16.7717 27.2478 15.9292 27.2478 14.9999C27.2478 14.0705 26.7737 13.228 25.9798 12.7463Z" fill="white"/>
</svg>
