<svg width="30" height="30" viewBox="0 0 30 30" fill="none" xmlns="http://www.w3.org/2000/svg">
<path d="M28.1434 7.52344C26.4313 7.52344 24.8516 6.95625 23.583 5.99941C22.1282 4.90254 21.0828 3.29355 20.7137 1.43906C20.6223 0.980859 20.5731 0.508008 20.5684 0.0234375H15.6776V13.3875L15.6717 20.7076C15.6717 22.6646 14.3973 24.324 12.6307 24.9076C12.118 25.077 11.5643 25.1572 10.9877 25.1256C10.2518 25.0852 9.56215 24.8631 8.96273 24.5045C7.68715 23.7416 6.8223 22.3576 6.79887 20.7744C6.76195 18.3 8.76234 16.2826 11.235 16.2826C11.7231 16.2826 12.1918 16.3623 12.6307 16.507V12.8543V11.5412C12.1678 11.4727 11.6967 11.4369 11.2204 11.4369C8.51391 11.4369 5.98265 12.5619 4.17328 14.5887C2.8057 16.1203 1.98539 18.0744 1.85883 20.1234C1.69301 22.8152 2.67797 25.374 4.58812 27.2619C4.86879 27.5391 5.16351 27.7963 5.47172 28.0336C7.10941 29.2939 9.11156 29.9771 11.2204 29.9771C11.6967 29.9771 12.1678 29.942 12.6307 29.8734C14.6006 29.5816 16.4182 28.6799 17.8526 27.2619C19.6151 25.5199 20.5889 23.2072 20.5995 20.7457L20.5743 9.81445C21.4151 10.4631 22.3344 10.9998 23.3211 11.4164C24.8557 12.0639 26.4829 12.392 28.1575 12.3914V8.84004V7.52226C28.1586 7.52344 28.1446 7.52344 28.1434 7.52344Z" fill="white"/>
</svg>
